<?xml version="1.0" encoding="utf-8"?>
<!-- Generator: Adobe Illustrator 23.0.3, SVG Export Plug-In . SVG Version: 6.00 Build 0)  -->
<svg version="1.1" id="Layer_1" xmlns="http://www.w3.org/2000/svg" xmlns:xlink="http://www.w3.org/1999/xlink" x="0px" y="0px"
	 viewBox="0 0 400 400" style="enable-background:new 0 0 400 400;" xml:space="preserve">
<style type="text/css">
	.st0{fill:none;stroke:#F11F41;stroke-width:4;stroke-miterlimit:10;}
</style>
<path class="st0" d="M310.56,390.95H89.44c-8.15,0-14.76-6.61-14.76-14.76V140.86c0-0.29,0.24-0.53,0.53-0.53h249.3
	c0.44,0,0.79,0.35,0.79,0.79V376.2C325.31,384.35,318.71,390.95,310.56,390.95z"/>
<path class="st0" d="M344.69,140.33H55.31c-3.53,0-6.39-2.86-6.39-6.39v-31.71c0-3.53,2.86-6.39,6.39-6.39h289.39
	c3.53,0,6.39,2.86,6.39,6.39v31.71C351.08,137.47,348.22,140.33,344.69,140.33z"/>
<g>
	<path class="st0" d="M91.47,83.15c1.57,4.53,3.71,8.79,6.33,12.7"/>
	<path class="st0" d="M199.84,60.53c-2.2-28.8-26.27-51.48-55.64-51.48c-30.82,0-55.8,24.98-55.8,55.8c0,6.41,1.08,12.57,3.07,18.3"
		/>
</g>
<g>
	<path class="st0" d="M308.54,83.14c1.99-5.73,3.07-11.89,3.07-18.29c0-30.82-24.98-55.8-55.8-55.8S200,34.03,200,64.85"/>
	<path class="st0" d="M302.21,95.85c2.62-3.91,4.76-8.18,6.33-12.71"/>
</g>
<line class="st0" x1="200" y1="390.95" x2="200" y2="64.85"/>
<path class="st0" d="M199.84,68.04c0-23.06-18.7-41.76-41.76-41.76s-41.76,18.7-41.76,41.76c0,10.68,4.01,20.43,10.61,27.81"/>
<path class="st0" d="M199.84,75.57c0-16.82-13.64-30.46-30.46-30.46s-30.46,13.64-30.46,30.46c0,7.79,2.92,14.9,7.74,20.28"/>
<path class="st0" d="M199.84,88.32c0-6.34-5.14-11.48-11.48-11.48c-6.34,0-11.48,5.14-11.48,11.48c0,2.94,1.1,5.62,2.92,7.65"/>
<path class="st0" d="M273.15,95.86c6.45-7.35,10.37-16.99,10.37-27.54c0-23.06-18.7-41.76-41.76-41.76
	c-23.06,0-41.76,18.7-41.76,41.76"/>
<path class="st0" d="M253.88,95.84c4.76-5.42,7.64-12.51,7.64-20.29c0-16.99-13.77-30.76-30.76-30.76S200,58.57,200,75.56"/>
<path class="st0" d="M232.5,95.12c2.87-3.27,4.61-7.55,4.61-12.24c0-10.25-8.31-18.56-18.56-18.56c-10.25,0-18.56,8.31-18.56,18.56"
	/>
<line class="st0" x1="199.84" y1="280.75" x2="74.69" y2="155.6"/>
<line class="st0" x1="198.95" y1="337.01" x2="324.1" y2="211.86"/>
</svg>
