<?xml version="1.0" encoding="utf-8"?>
<!-- Generator: Adobe Illustrator 23.0.3, SVG Export Plug-In . SVG Version: 6.00 Build 0)  -->
<svg version="1.1" id="Layer_1" xmlns="http://www.w3.org/2000/svg" xmlns:xlink="http://www.w3.org/1999/xlink" x="0px" y="0px"
	 viewBox="0 0 400 400" style="enable-background:new 0 0 400 400;" xml:space="preserve">
<style type="text/css">
	.st0{fill:#FFFFFF;stroke:#F11F41;stroke-width:3;stroke-miterlimit:10;}
	.st1{fill:none;stroke:#F11F41;stroke-width:3;stroke-linecap:round;stroke-miterlimit:10;}
	.st2{fill:none;stroke:#F11F41;stroke-width:2;stroke-linecap:round;stroke-miterlimit:10;}
</style>
<path class="st0" d="M358.19,31.65H41.82c-19.42,0-35.17,15.74-35.17,35.17V256.4c0,19.42,15.74,35.17,35.17,35.17h316.35
	c19.42,0,35.17-15.74,35.17-35.17V66.82C393.34,47.39,377.6,31.65,358.19,31.65z"/>
<line class="st1" x1="103.34" y1="349.64" x2="296.68" y2="349.64"/>
<g>
	<g>
		<line class="st2" x1="21.07" y1="91.96" x2="130.47" y2="91.96"/>
		<line class="st2" x1="146.61" y1="91.96" x2="255.98" y2="91.96"/>
		<line class="st2" x1="272.14" y1="91.96" x2="381.52" y2="91.96"/>
	</g>
	<g>
		<line class="st2" x1="21.07" y1="112.93" x2="130.47" y2="112.93"/>
		<line class="st2" x1="146.61" y1="112.93" x2="255.98" y2="112.93"/>
		<line class="st2" x1="272.14" y1="112.93" x2="381.52" y2="112.93"/>
	</g>
	<g>
		<line class="st2" x1="21.07" y1="133.9" x2="130.47" y2="133.9"/>
		<line class="st2" x1="146.61" y1="133.9" x2="255.98" y2="133.9"/>
		<line class="st2" x1="272.14" y1="133.9" x2="381.52" y2="133.9"/>
	</g>
	<g>
		<line class="st2" x1="21.07" y1="154.86" x2="130.47" y2="154.86"/>
		<line class="st2" x1="146.61" y1="154.86" x2="255.98" y2="154.86"/>
		<line class="st2" x1="272.14" y1="154.86" x2="381.52" y2="154.86"/>
	</g>
	<g>
		<line class="st2" x1="21.07" y1="175.83" x2="130.47" y2="175.83"/>
		<line class="st2" x1="146.61" y1="175.83" x2="255.98" y2="175.83"/>
		<line class="st2" x1="272.14" y1="175.83" x2="381.52" y2="175.83"/>
	</g>
	<g>
		<line class="st2" x1="21.07" y1="196.8" x2="130.47" y2="196.8"/>
		<line class="st2" x1="146.61" y1="196.8" x2="255.98" y2="196.8"/>
		<line class="st2" x1="272.14" y1="196.8" x2="381.52" y2="196.8"/>
	</g>
	<g>
		<line class="st2" x1="21.07" y1="217.76" x2="130.47" y2="217.76"/>
		<line class="st2" x1="146.61" y1="217.76" x2="255.98" y2="217.76"/>
		<line class="st2" x1="272.14" y1="217.76" x2="381.52" y2="217.76"/>
	</g>
	<g>
		<line class="st2" x1="21.07" y1="238.73" x2="130.47" y2="238.73"/>
		<line class="st2" x1="146.61" y1="238.73" x2="255.98" y2="238.73"/>
		<line class="st2" x1="272.14" y1="238.73" x2="381.52" y2="238.73"/>
	</g>
</g>
</svg>
