<?xml version="1.0" encoding="utf-8"?>
<!-- Generator: Adobe Illustrator 23.0.3, SVG Export Plug-In . SVG Version: 6.00 Build 0)  -->
<svg version="1.1" id="Layer_1" xmlns="http://www.w3.org/2000/svg" xmlns:xlink="http://www.w3.org/1999/xlink" x="0px" y="0px"
	 viewBox="0 0 400 400" style="enable-background:new 0 0 400 400;" xml:space="preserve">
<style type="text/css">
	.st0{fill:none;stroke:#F11F41;stroke-width:4;stroke-miterlimit:10;}
</style>
<path class="st0" d="M396.7,322.84c-0.63-4.31-3.32-6.98-4.45-8.16c-14.82-5.94-33.15-14.86-52.44-28.36
	c-16.53-11.57-29.57-23.55-39.49-33.99c-5.16-3.5-13.19-0.65-19.27,4.48l-32.24,23.91L120.93,150.39
	c3.95-5.31,7.49-9.49,10.38-12.68c5.13-5.67,9.13-12.28,13.74-18.38c2.1-2.78,3.87-6.17,4.68-9.52c1.02-4.23-0.47-7.72-1.08-9.23
	c-11.53-11.05-25.2-26.17-38.05-45.89C99.59,37.79,91.97,21.8,86.67,8.41c-3.48-5.17-11.99-5.53-19.55-3.04L9.31,20.46
	c-1.11,1.25-3,3.65-4.41,7.1c0.02,1.63-0.49,3.27-1.52,4.51c0,0.26,0,0.54,0,0.86c-0.64,4.04-0.13,7.39,0.32,9.33
	c3.13,51.58,35.62,261.05,353.64,353.07l0.02,0.01c0.01,0,0.02,0,0.04,0c0.9,0.26,1.8,0.52,2.7,0.78c0.53-0.14,1.11-0.22,1.74-0.22
	l-0.33-0.34c14.68,0.46,18.2-3.37,19.09-4.4l9.44-35.57c1.96-7.39,3.92-14.79,5.88-22.18C396.82,330.06,397.2,326.25,396.7,322.84z"
	/>
</svg>
